#!OML:ASF X:\für Bonn\!DataBase\2005_08_10_Bjorn_Final\c3d\bjorn.ASF
:FULLY-SPECIFIED
:DEGREES
125
root 2.23532 17.1549 2.36244 -200.163 11.326 183.883
lowerback -10.3753 -1.09726 4.14186
upperback 12.6935 -1.34172 0.565956
thorax 20.6927 0.424194 -1.8391
lowerneck -1.50543 4.6751 10.1462
upperneck 15.3505 7.57205 -7.09399
head 5.50368 4.15897 -3.44709
rclavicle 4.36084e-015 -3.26007e-014
rhumerus -306.179 21.2851 280.551
rradius 90.1085
rwrist 25.0659
rhand -52.2443 44.2837
rfingers 7.12502
rthumb -24.7416 15.8638
lclavicle 4.36084e-015 -3.26007e-014
lhumerus 47.6148 -32.2656 79.7553
lradius 105.574
lwrist 14.2445
lhand -48.364 -21.9184
lfingers 7.12502
lthumb -21.0181 6.96269
rfemur 23.2586 1.33333 19.5935
rtibia 38.8673
rfoot -35.7149 16.2871
rtoes -18.6439
lfemur -15.4933 -9.70534 -6.50982
ltibia 56.374
lfoot -14.2042 -6.31546
ltoes -24.7213
126
root 2.19887 17.1306 2.26601 -200.205 11.64 183.97
lowerback -10.3136 -1.08331 4.29067
upperback 12.7699 -1.34891 0.667038
thorax 20.7552 0.441636 -1.79912
lowerneck -1.56254 4.74828 10.1015
upperneck 14.8314 7.61204 -7.30297
head 5.36198 4.1383 -3.50503
rclavicle -4.52643e-014 5.04416e-015
rhumerus -306.636 21.5537 280.512
rradius 90.4987
rwrist 25.0883
rhand -52.3304 44.6925
rfingers 7.12502
rthumb -24.8242 16.2839
lclavicle -4.52643e-014 5.04416e-015
lhumerus 47.0925 -32.642 79.9976
lradius 105.992
lwrist 13.9785
lhand -48.9111 -22.3504
lfingers 7.12502
lthumb -21.5437 6.4714
rfemur 23.584 1.49509 19.4522
rtibia 38.8823
rfoot -35.5918 16.6824
rtoes -18.9301
lfemur -15.4178 -9.39021 -6.54468
ltibia 57.0995
lfoot -14.5091 -6.22688
ltoes -24.3876
127
root 2.16167 17.1089 2.16878 -200.211 11.9723 184.037
lowerback -10.2837 -1.04013 4.45048
upperback 12.8328 -1.32004 0.753129
thorax 20.8242 0.476881 -1.7741
lowerneck -1.68127 4.81578 10.1134
upperneck 14.3358 7.64057 -7.5427
head 5.24088 4.11338 -3.58067
rclavicle 1.75955e-014 -8.17502e-015
rhumerus -307.149 21.7918 280.444
rradius 90.9058
rwrist 25.173
rhand -52.4347 45.0687
rfingers 7.12502
rthumb -24.9242 16.6739
lclavicle 1.75955e-014 -8.17502e-015
lhumerus 46.5611 -33.0658 80.2537
lradius 106.385
lwrist 13.7271
lhand -49.4259 -22.8853
lfingers 7.12502
lthumb -22.038 5.87906
rfemur 23.8658 1.70329 19.3017
rtibia 38.8924
rfoot -35.4562 17.0811
rtoes -19.2545
lfemur -15.3479 -9.00132 -6.60855
ltibia 57.8014
lfoot -14.9023 -5.99837
ltoes -25.0733
128
root 2.1231 17.0892 2.07127 -200.159 12.3266 184.134
lowerback -10.2602 -0.98937 4.64698
upperback 12.8476 -1.2992 0.852142
thorax 20.8309 0.506301 -1.75865
lowerneck -1.85393 4.88409 10.0919
upperneck 13.9853 7.67759 -7.71237
head 5.17117 4.09941 -3.62561
rclavicle -8.03991e-015 -1.28216e-014
rhumerus -307.753 22.0899 280.382
rradius 91.349
rwrist 25.2535
rhand -52.5965 45.4082
rfingers 7.12502
rthumb -25.0792 17.035
lclavicle -8.03991e-015 -1.28216e-014
lhumerus 45.8436 -33.4875 80.6244
lradius 106.83
lwrist 13.4
lhand -49.9372 -23.4546
lfingers 7.12502
lthumb -22.5288 5.25109
rfemur 24.0836 1.90294 19.1682
rtibia 38.8983
rfoot -35.2965 17.448
rtoes -19.669
lfemur -15.3021 -8.56261 -6.61168
ltibia 58.4659
lfoot -15.3099 -5.81147
ltoes -26.017
129
root 2.08348 17.0729 1.97349 -200.034 12.7102 184.176
lowerback -10.3203 -0.914935 4.81019
upperback 12.8426 -1.24916 0.943435
thorax 20.8727 0.542035 -1.7278
lowerneck -2.1542 4.9547 10.0007
upperneck 13.7917 7.71704 -7.80351
head 5.16643 4.08844 -3.62979
rclavicle -2.34162e-014 6.41081e-015
rhumerus -308.342 22.3953 280.332
rradius 91.79
rwrist 25.3229
rhand -52.7073 45.6819
rfingers 7.12502
rthumb -25.1854 17.3236
lclavicle -2.34162e-014 6.41081e-015
lhumerus 45.0813 -33.9079 81.0381
lradius 107.315
lwrist 13.0727
lhand -50.3719 -24.0046
lfingers 7.12502
lthumb -22.946 4.64983
rfemur 24.2114 2.15347 18.976
rtibia 38.8836
rfoot -35.0723 17.8626
rtoes -19.8996
lfemur -15.2777 -8.09583 -6.62481
ltibia 59.0599
lfoot -15.701 -5.74924
ltoes -26.6978
130
root 2.04369 17.0656 1.87637 -199.846 13.0688 184.173
lowerback -10.4303 -0.82894 4.93374
upperback 12.8151 -1.17978 1.00366
thorax 20.9203 0.580805 -1.70818
lowerneck -2.53692 5.03336 9.97598
upperneck 13.6856 7.7624 -7.87961
head 5.20547 4.08397 -3.63678
rclavicle -9.52924e-015 7.15625e-015
rhumerus -308.989 22.7155 280.234
rradius 92.2861
rwrist 25.4922
rhand -52.8225 45.6645
rfingers 7.12502
rthumb -25.2958 17.3217
lclavicle -9.52924e-015 7.15625e-015
lhumerus 44.3606 -34.3186 81.4315
lradius 107.74
lwrist 12.7335
lhand -50.8032 -24.5688
lfingers 7.12502
lthumb -23.3598 4.03368
rfemur 24.2664 2.39083 18.7125
rtibia 38.8219
rfoot -34.7572 18.3588
rtoes -19.9624
lfemur -15.2976 -7.60836 -6.67914
ltibia 59.5603
lfoot -16.0502 -5.68625
ltoes -27.6267
131
root 2.00316 17.0663 1.78016 -199.623 13.4262 184.12
lowerback -10.5677 -0.731654 5.01703
upperback 12.7723 -1.09107 1.05542
thorax 20.9678 0.620777 -1.67173
lowerneck -2.88782 5.10194 9.91413
upperneck 13.5263 7.79803 -7.97211
head 5.22094 4.07241 -3.64471
rclavicle -7.65942e-015 2.33572e-014
rhumerus -309.666 23.0514 280.162
rradius 92.8193
rwrist 25.495
rhand -52.8719 45.9621
rfingers 7.12502
rthumb -25.3431 17.626
lclavicle -7.65942e-015 2.33572e-014
lhumerus 43.6224 -34.7424 81.829
lradius 108.163
lwrist 12.362
lhand -51.2258 -25.0519
lfingers 7.12502
lthumb -23.7652 3.49845
rfemur 24.2931 2.63638 18.3915
rtibia 38.6935
rfoot -34.3978 18.8069
rtoes -20.2188
lfemur -15.3156 -7.10738 -6.77854
ltibia 59.9441
lfoot -16.3529 -5.66685
ltoes -28.5328
132
root 1.96299 17.074 1.68434 -199.38 13.7818 184.05
lowerback -10.7031 -0.620784 5.07416
upperback 12.7118 -0.980681 1.10471
thorax 20.9913 0.664109 -1.61825
lowerneck -3.16891 5.15818 9.87744
upperneck 13.292 7.81635 -8.07252
head 5.20114 4.05425 -3.66274
rclavicle 2.52084e-014 -7.7526e-015
rhumerus -310.389 23.3782 280.049
rradius 93.4302
rwrist 25.2376
rhand -52.75 46.8293
rfingers 7.12502
rthumb -25.2262 18.4767
lclavicle 2.52084e-014 -7.7526e-015
lhumerus 42.8944 -35.1883 82.1934
lradius 108.543
lwrist 11.835
lhand -51.5779 -25.0135
lfingers 7.12502
lthumb -24.1029 3.49256
rfemur 24.3311 2.8903 18.0489
rtibia 38.473
rfoot -33.925 19.2957
rtoes -20.2932
lfemur -15.3168 -6.59056 -6.88522
ltibia 60.2198
lfoot -16.6085 -5.67626
ltoes -29.467
